<!DOCTYPE svg PUBLIC "-//W3C//DTD SVG 1.1//EN" "http://www.w3.org/Graphics/SVG/1.1/DTD/svg11.dtd"> <svg width="521px" height="521px" version="1.1" baseProfile="full" xmlns="http://www.w3.org/2000/svg" xmlns:xlink="http://www.w3.org/1999/xlink" xmlns:ev="http://www.w3.org/2001/xml-events"><polygon fill="rgb(247,132,25)" stroke="rgb(247,132,25)" points="322.17908991873264,80.96190404891968 288.6286404468119,81.2114610671997 276.3780042976141,50.35584354400635"></polygon><polygon fill="rgb(247,132,25)" stroke="rgb(247,132,25)" points="276.3780042976141,50.35584354400635 336.4889493584633,49.759921073913574 322.17908991873264,80.96190404891968"></polygon><polygon fill="rgb(228,119,25)" stroke="rgb(228,119,25)" points="288.6286404468119,81.2114610671997 204.67670956254005,18.635001182556152 276.3780042976141,50.35584354400635"></polygon><polygon fill="rgb(225,119,25)" stroke="rgb(225,119,25)" points="406.6964586377144,16.105167388916016 322.17908991873264,80.96190404891968 336.4889493584633,49.759921073913574"></polygon><polygon fill="rgb(119,57,0)" stroke="rgb(119,57,0)" points="239.25654251873493,108.83694791793823 201.05073618888855,98.86062383651733 199.067595154047,90.01898574829102"></polygon><polygon fill="rgb(119,57,0)" stroke="rgb(119,57,0)" points="202.27990978956223,109.49079537391663 201.05073618888855,98.86062383651733 239.25654251873493,108.83694791793823"></polygon><polygon fill="rgb(119,57,0)" stroke="rgb(119,57,0)" points="207.51886129379272,124.8775749206543 239.25654251873493,108.83694791793823 255.3185548633337,111.4996325969696"></polygon><polygon fill="rgb(119,57,0)" stroke="rgb(119,57,0)" points="202.27990978956223,109.49079537391663 239.25654251873493,108.83694791793823 207.51886129379272,124.8775749206543"></polygon><polygon fill="rgb(119,57,0)" stroke="rgb(119,57,0)" points="240.44971357285976,60.21757507324219 239.25654251873493,108.83694791793823 199.067595154047,90.01898574829102"></polygon><polygon fill="rgb(119,57,0)" stroke="rgb(119,57,0)" points="255.3185548633337,111.4996325969696 239.25654251873493,108.83694791793823 240.44971357285976,60.21757507324219"></polygon><polygon fill="rgb(225,119,25)" stroke="rgb(225,119,25)" points="255.51231901347637,209.87902736663818 268.68031903356314,203.64921283721924 271.3440019786358,203.45191383361816"></polygon><polygon fill="rgb(119,57,0)" stroke="rgb(119,57,0)" points="373.86178393661976,108.13006353378296 414.2852464914322,88.5591516494751 412.22213131189346,97.5787124633789"></polygon><polygon fill="rgb(119,57,0)" stroke="rgb(119,57,0)" points="410.90676203370094,108.40289998054504 373.86178393661976,108.13006353378296 412.22213131189346,97.5787124633789"></polygon><polygon fill="rgb(119,57,0)" stroke="rgb(119,57,0)" points="405.52282136678696,124.09054613113403 356.80635291337967,110.9890022277832 373.86178393661976,108.13006353378296"></polygon><polygon fill="rgb(119,57,0)" stroke="rgb(119,57,0)" points="410.90676203370094,108.40289998054504 405.52282136678696,124.09054613113403 373.86178393661976,108.13006353378296"></polygon><polygon fill="rgb(119,57,0)" stroke="rgb(119,57,0)" points="414.2852464914322,88.5591516494751 373.86178393661976,108.13006353378296 371.1855412721634,59.02119827270508"></polygon><polygon fill="rgb(119,57,0)" stroke="rgb(119,57,0)" points="371.1855412721634,59.02119827270508 373.86178393661976,108.13006353378296 356.80635291337967,110.9890022277832"></polygon><polygon fill="rgb(225,119,25)" stroke="rgb(225,119,25)" points="341.941237680614,203.61661005020142 343.4252333715558,203.8248052597046 355.178333312273,210.16315269470215"></polygon><polygon fill="rgb(119,57,0)" stroke="rgb(119,57,0)" points="194.0744582414627,93.20602083206177 199.067595154047,90.01898574829102 201.05073618888855,98.86062383651733"></polygon><polygon fill="rgb(119,57,0)" stroke="rgb(119,57,0)" points="202.27990978956223,109.49079537391663 195.38184931874275,102.7313003540039 201.05073618888855,98.86062383651733"></polygon><polygon fill="rgb(119,57,0)" stroke="rgb(119,57,0)" points="199.067595154047,90.01898574829102 192.81953847408295,52.96412658691406 240.44971357285976,60.21757507324219"></polygon><polygon fill="rgb(228,119,25)" stroke="rgb(228,119,25)" points="255.51231901347637,209.87902736663818 202.84112864732742,230.23640155792236 189.9019872546196,176.3617808818817"></polygon><polygon fill="rgb(119,57,0)" stroke="rgb(119,57,0)" points="240.44971357285976,60.21757507324219 288.6286404468119,81.2114610671997 255.3185548633337,111.4996325969696"></polygon><polygon fill="rgb(119,57,0)" stroke="rgb(119,57,0)" points="207.51886129379272,124.8775749206543 197.63992720842361,112.43602395057678 202.27990978956223,109.49079537391663"></polygon><polygon fill="rgb(247,132,25)" stroke="rgb(247,132,25)" points="239.45204503834248,127.65683269500732 189.9019872546196,176.3617808818817 207.51886129379272,124.8775749206543"></polygon><polygon fill="rgb(119,57,0)" stroke="rgb(119,57,0)" points="356.80635291337967,110.9890022277832 322.17908991873264,80.96190404891968 371.1855412721634,59.02119827270508"></polygon><polygon fill="rgb(228,119,25)" stroke="rgb(228,119,25)" points="189.9019872546196,176.3617808818817 231.31149871647358,169.3738067150116 255.51231901347637,209.87902736663818"></polygon><polygon fill="rgb(247,132,25)" stroke="rgb(247,132,25)" points="231.31149871647358,169.3738067150116 189.9019872546196,176.3617808818817 239.45204503834248,127.65683269500732"></polygon><polygon fill="rgb(119,57,0)" stroke="rgb(119,57,0)" points="419.30098220705986,91.73547077178955 412.22213131189346,97.5787124633789 414.2852464914322,88.5591516494751"></polygon><polygon fill="rgb(228,119,25)" stroke="rgb(228,119,25)" points="424.419318318367,176.4007716178894 411.41581150889397,231.17515754699707 355.178333312273,210.16315269470215"></polygon><polygon fill="rgb(119,57,0)" stroke="rgb(119,57,0)" points="410.90676203370094,108.40289998054504 412.22213131189346,97.5787124633789 417.91174137592316,101.44916152954102"></polygon><polygon fill="rgb(247,132,25)" stroke="rgb(247,132,25)" points="207.51886129379272,124.8775749206543 255.3185548633337,111.4996325969696 239.45204503834248,127.65683269500732"></polygon><polygon fill="rgb(119,57,0)" stroke="rgb(119,57,0)" points="371.1855412721634,59.02119827270508 419.96724432706833,50.74482822418213 414.2852464914322,88.5591516494751"></polygon><polygon fill="rgb(119,57,0)" stroke="rgb(119,57,0)" points="405.52282136678696,124.09054613113403 410.90676203370094,108.40289998054504 415.5626369714737,111.35089230537415"></polygon><polygon fill="rgb(247,132,25)" stroke="rgb(247,132,25)" points="405.52282136678696,124.09054613113403 370.63692559301853,127.16598308086395 356.80635291337967,110.9890022277832"></polygon><polygon fill="rgb(228,119,25)" stroke="rgb(228,119,25)" points="255.3185548633337,111.4996325969696 288.6286404468119,81.2114610671997 290.25035159662366,127.52999532222748"></polygon><polygon fill="rgb(228,119,25)" stroke="rgb(228,119,25)" points="290.25035159662366,127.52999532222748 239.45204503834248,127.65683269500732 255.3185548633337,111.4996325969696"></polygon><polygon fill="rgb(119,57,0)" stroke="rgb(119,57,0)" points="204.67670956254005,18.635001182556152 288.6286404468119,81.2114610671997 240.44971357285976,60.21757507324219"></polygon><polygon fill="rgb(119,57,0)" stroke="rgb(119,57,0)" points="240.44971357285976,60.21757507324219 192.81953847408295,52.96412658691406 204.67670956254005,18.635001182556152"></polygon><polygon fill="rgb(247,132,25)" stroke="rgb(247,132,25)" points="370.63692559301853,127.16598308086395 405.52282136678696,124.09054613113403 424.419318318367,176.4007716178894"></polygon><polygon fill="rgb(228,119,25)" stroke="rgb(228,119,25)" points="355.178333312273,210.16315269470215 378.8035200089216,169.31551051139832 424.419318318367,176.4007716178894"></polygon><polygon fill="rgb(247,132,25)" stroke="rgb(247,132,25)" points="370.63692559301853,127.16598308086395 424.419318318367,176.4007716178894 378.8035200089216,169.31551051139832"></polygon><polygon fill="rgb(228,119,25)" stroke="rgb(228,119,25)" points="356.80635291337967,110.9890022277832 370.63692559301853,127.16598308086395 318.2810983210802,127.42525613307953"></polygon><polygon fill="rgb(228,119,25)" stroke="rgb(228,119,25)" points="318.2810983210802,127.42525613307953 322.17908991873264,80.96190404891968 356.80635291337967,110.9890022277832"></polygon><polygon fill="rgb(119,57,0)" stroke="rgb(119,57,0)" points="406.6964586377144,16.105167388916016 419.96724432706833,50.74482822418213 371.1855412721634,59.02119827270508"></polygon><polygon fill="rgb(119,57,0)" stroke="rgb(119,57,0)" points="371.1855412721634,59.02119827270508 322.17908991873264,80.96190404891968 406.6964586377144,16.105167388916016"></polygon><polygon fill="rgb(247,132,25)" stroke="rgb(247,132,25)" points="288.6286404468119,81.2114610671997 322.17908991873264,80.96190404891968 318.2810983210802,127.42525613307953"></polygon><polygon fill="rgb(247,132,25)" stroke="rgb(247,132,25)" points="318.2810983210802,127.42525613307953 290.25035159662366,127.52999532222748 288.6286404468119,81.2114610671997"></polygon><polygon fill="rgb(205,98,0)" stroke="rgb(205,98,0)" points="255.51231901347637,209.87902736663818 231.31149871647358,169.3738067150116 259.6967481523752,167.76686310768127"></polygon><polygon fill="rgb(205,98,0)" stroke="rgb(205,98,0)" points="355.178333312273,210.16315269470215 349.0482250005007,167.7201282978058 378.8035200089216,169.31551051139832"></polygon><polygon fill="rgb(205,98,0)" stroke="rgb(205,98,0)" points="259.4454393982887,147.18381616473198 239.45204503834248,127.65683269500732 290.25035159662366,127.52999532222748"></polygon><polygon fill="rgb(228,116,36)" stroke="rgb(228,116,36)" points="239.45204503834248,127.65683269500732 259.4454393982887,147.18381616473198 259.6967481523752,167.76686310768127"></polygon><polygon fill="rgb(247,132,25)" stroke="rgb(247,132,25)" points="239.45204503834248,127.65683269500732 259.6967481523752,167.76686310768127 231.31149871647358,169.3738067150116"></polygon><polygon fill="rgb(205,98,0)" stroke="rgb(205,98,0)" points="318.2810983210802,127.42525613307953 370.63692559301853,127.16598308086395 349.6265347748995,146.9879727959633"></polygon><polygon fill="rgb(228,116,36)" stroke="rgb(228,116,36)" points="370.63692559301853,127.16598308086395 349.0482250005007,167.7201282978058 349.6265347748995,146.9879727959633"></polygon><polygon fill="rgb(247,132,25)" stroke="rgb(247,132,25)" points="378.8035200089216,169.31551051139832 349.0482250005007,167.7201282978058 370.63692559301853,127.16598308086395"></polygon><polygon fill="rgb(192,172,157)" stroke="rgb(192,172,157)" points="265.1019289493561,215.44633197784424 255.51231901347637,209.87902736663818 282.3239255025983,210.51318740844727"></polygon><polygon fill="rgb(205,98,0)" stroke="rgb(205,98,0)" points="290.25035159662366,127.52999532222748 277.85310685634613,138.49975329637527 259.4454393982887,147.18381616473198"></polygon><polygon fill="rgb(192,172,157)" stroke="rgb(192,172,157)" points="322.2847187370062,210.62888717651367 355.178333312273,210.16315269470215 344.1359474286437,215.70669078826904"></polygon><polygon fill="rgb(214,194,178)" stroke="rgb(214,194,178)" points="281.584171526134,198.64214658737183 282.3239255025983,210.51318740844727 255.51231901347637,209.87902736663818"></polygon><polygon fill="rgb(214,194,178)" stroke="rgb(214,194,178)" points="255.51231901347637,209.87902736663818 284.15146417170763,176.98880195617676 281.584171526134,198.64214658737183"></polygon><polygon fill="rgb(228,119,25)" stroke="rgb(228,119,25)" points="284.15146417170763,176.98880195617676 255.51231901347637,209.87902736663818 259.6967481523752,167.76686310768127"></polygon><polygon fill="rgb(36,51,67)" stroke="rgb(36,51,67)" points="285.10600055754185,153.25573575496674 259.4454393982887,147.18381616473198 277.85310685634613,138.49975329637527"></polygon><polygon fill="rgb(247,132,25)" stroke="rgb(247,132,25)" points="259.6967481523752,167.76686310768127 259.4454393982887,147.18381616473198 285.10600055754185,153.25573575496674"></polygon><polygon fill="rgb(205,98,0)" stroke="rgb(205,98,0)" points="349.6265347748995,146.9879727959633 330.9033532589674,138.34787106513977 318.2810983210802,127.42525613307953"></polygon><polygon fill="rgb(205,98,0)" stroke="rgb(205,98,0)" points="277.85310685634613,138.49975329637527 290.25035159662366,127.52999532222748 285.10600055754185,153.25573575496674"></polygon><polygon fill="rgb(214,194,178)" stroke="rgb(214,194,178)" points="321.88475308939815,198.72058725357056 355.178333312273,210.16315269470215 322.2847187370062,210.62888717651367"></polygon><polygon fill="rgb(214,194,178)" stroke="rgb(214,194,178)" points="355.178333312273,210.16315269470215 321.88475308939815,198.72058725357056 319.17651756480336,176.996337890625"></polygon><polygon fill="rgb(228,119,25)" stroke="rgb(228,119,25)" points="319.17651756480336,176.996337890625 349.0482250005007,167.7201282978058 355.178333312273,210.16315269470215"></polygon><polygon fill="rgb(36,51,67)" stroke="rgb(36,51,67)" points="323.01815854385495,153.1919721364975 330.9033532589674,138.34787106513977 349.6265347748995,146.9879727959633"></polygon><polygon fill="rgb(247,132,25)" stroke="rgb(247,132,25)" points="349.0482250005007,167.7201282978058 323.01815854385495,153.1919721364975 349.6265347748995,146.9879727959633"></polygon><polygon fill="rgb(205,98,0)" stroke="rgb(205,98,0)" points="330.9033532589674,138.34787106513977 323.01815854385495,153.1919721364975 318.2810983210802,127.42525613307953"></polygon><polygon fill="rgb(228,116,36)" stroke="rgb(228,116,36)" points="285.10600055754185,153.25573575496674 290.25035159662366,127.52999532222748 290.89628851786256,142.12672872841358"></polygon><polygon fill="rgb(247,132,25)" stroke="rgb(247,132,25)" points="290.89628851786256,142.12672872841358 290.25035159662366,127.52999532222748 318.2810983210802,127.42525613307953"></polygon><polygon fill="rgb(247,132,25)" stroke="rgb(247,132,25)" points="318.2810983210802,127.42525613307953 316.72883731871843,142.06033292412758 290.89628851786256,142.12672872841358"></polygon><polygon fill="rgb(225,119,25)" stroke="rgb(225,119,25)" points="323.01815854385495,153.1919721364975 316.72883731871843,142.06033292412758 318.2810983210802,127.42525613307953"></polygon><polygon fill="rgb(192,172,157)" stroke="rgb(192,172,157)" points="282.3239255025983,210.51318740844727 283.9050594493747,219.22150039672852 265.1019289493561,215.44633197784424"></polygon><polygon fill="rgb(192,172,157)" stroke="rgb(192,172,157)" points="344.1359474286437,215.70669078826904 320.41390381753445,219.35260677337646 322.2847187370062,210.62888717651367"></polygon><polygon fill="rgb(247,132,25)" stroke="rgb(247,132,25)" points="284.15146417170763,176.98880195617676 259.6967481523752,167.76686310768127 285.10600055754185,153.25573575496674"></polygon><polygon fill="rgb(247,132,25)" stroke="rgb(247,132,25)" points="323.01815854385495,153.1919721364975 349.0482250005007,167.7201282978058 319.17651756480336,176.996337890625"></polygon><polygon fill="rgb(228,116,36)" stroke="rgb(228,116,36)" points="290.89628851786256,142.12672872841358 288.669346883893,173.84177470207214 285.10600055754185,153.25573575496674"></polygon><polygon fill="rgb(247,132,25)" stroke="rgb(247,132,25)" points="285.10600055754185,153.25573575496674 288.669346883893,173.84177470207214 284.15146417170763,176.98880195617676"></polygon><polygon fill="rgb(228,116,36)" stroke="rgb(228,116,36)" points="316.72883731871843,142.06033292412758 323.01815854385495,153.1919721364975 314.64500294812024,173.8408284187317"></polygon><polygon fill="rgb(247,132,25)" stroke="rgb(247,132,25)" points="319.17651756480336,176.996337890625 314.64500294812024,173.8408284187317 323.01815854385495,153.1919721364975"></polygon><polygon fill="rgb(247,132,25)" stroke="rgb(247,132,25)" points="290.89628851786256,142.12672872841358 316.72883731871843,142.06033292412758 314.64500294812024,173.8408284187317"></polygon><polygon fill="rgb(247,132,25)" stroke="rgb(247,132,25)" points="314.64500294812024,173.8408284187317 288.669346883893,173.84177470207214 290.89628851786256,142.12672872841358"></polygon><polygon fill="rgb(192,172,157)" stroke="rgb(192,172,157)" points="283.9050594493747,219.22150039672852 282.3239255025983,210.51318740844727 281.584171526134,198.64214658737183"></polygon><polygon fill="rgb(192,172,157)" stroke="rgb(192,172,157)" points="321.88475308939815,198.72058725357056 322.2847187370062,210.62888717651367 320.41390381753445,219.35260677337646"></polygon><polygon fill="rgb(192,172,157)" stroke="rgb(192,172,157)" points="281.584171526134,198.64214658737183 283.65496069192886,195.13737058639526 283.9050594493747,219.22150039672852"></polygon><polygon fill="rgb(192,172,157)" stroke="rgb(192,172,157)" points="283.9050594493747,219.22150039672852 283.65496069192886,195.13737058639526 319.2599249891937,195.19668817520142"></polygon><polygon fill="rgb(192,172,157)" stroke="rgb(192,172,157)" points="319.2599249891937,195.19668817520142 320.41390381753445,219.35260677337646 283.9050594493747,219.22150039672852"></polygon><polygon fill="rgb(192,172,157)" stroke="rgb(192,172,157)" points="320.41390381753445,219.35260677337646 319.2599249891937,195.19668817520142 321.88475308939815,198.72058725357056"></polygon><polygon fill="rgb(0,0,0)" stroke="rgb(0,0,0)" points="283.65496069192886,195.13737058639526 281.584171526134,198.64214658737183 284.15146417170763,176.98880195617676"></polygon><polygon fill="rgb(0,0,0)" stroke="rgb(0,0,0)" points="319.17651756480336,176.996337890625 321.88475308939815,198.72058725357056 319.2599249891937,195.19668817520142"></polygon><polygon fill="rgb(0,0,0)" stroke="rgb(0,0,0)" points="287.86737643554807,175.5140097141266 288.669346883893,173.84177470207214 314.64500294812024,173.8408284187317"></polygon><polygon fill="rgb(0,0,0)" stroke="rgb(0,0,0)" points="284.15146417170763,176.98880195617676 288.669346883893,173.84177470207214 287.86737643554807,175.5140097141266"></polygon><polygon fill="rgb(0,0,0)" stroke="rgb(0,0,0)" points="284.15146417170763,176.98880195617676 284.970965847373,178.77863574028015 283.65496069192886,195.13737058639526"></polygon><polygon fill="rgb(0,0,0)" stroke="rgb(0,0,0)" points="287.86737643554807,175.5140097141266 284.970965847373,178.77863574028015 284.15146417170763,176.98880195617676"></polygon><polygon fill="rgb(0,0,0)" stroke="rgb(0,0,0)" points="314.64500294812024,173.8408284187317 314.3427548222244,175.51658248901367 287.86737643554807,175.5140097141266"></polygon><polygon fill="rgb(0,0,0)" stroke="rgb(0,0,0)" points="314.3427548222244,175.51658248901367 314.64500294812024,173.8408284187317 319.17651756480336,176.996337890625"></polygon><polygon fill="rgb(0,0,0)" stroke="rgb(0,0,0)" points="319.2599249891937,195.19668817520142 317.2431499361992,178.79019498825073 319.17651756480336,176.996337890625"></polygon><polygon fill="rgb(0,0,0)" stroke="rgb(0,0,0)" points="319.17651756480336,176.996337890625 317.2431499361992,178.79019498825073 314.3427548222244,175.51658248901367"></polygon><polygon fill="rgb(0,0,0)" stroke="rgb(0,0,0)" points="319.2599249891937,195.19668817520142 283.65496069192886,195.13737058639526 284.970965847373,178.77863574028015"></polygon><polygon fill="rgb(0,0,0)" stroke="rgb(0,0,0)" points="284.970965847373,178.77863574028015 317.2431499361992,178.79019498825073 319.2599249891937,195.19668817520142"></polygon><polygon fill="rgb(0,0,0)" stroke="rgb(0,0,0)" points="284.970965847373,178.77863574028015 287.86737643554807,175.5140097141266 314.3427548222244,175.51658248901367"></polygon><polygon fill="rgb(0,0,0)" stroke="rgb(0,0,0)" points="314.3427548222244,175.51658248901367 317.2431499361992,178.79019498825073 284.970965847373,178.77863574028015"></polygon></svg>